<?xml version="1.0" encoding="UTF-8" standalone="no"?>
<svg xmlns="http://www.w3.org/2000/svg" width="189.2710723876953mm" height="130.27106475830078mm" viewBox="0 0 189.2710723876953 130.27106475830078">
<desc>Created with Glowforge for Fusion 360. To download visit: https://cam.autodesk.com/hsmposts?p=glowforge</desc>
<!-- CAM Setup Info:
Work Area Width: 189.2710723876953mm
Work Area Height: 130.27106475830078mm
Work Area Too Small?: false
Stock box Upper Right: 92.63553619384766,63.13553237915039
Stock box Lower Left: -92.63553619384766,-63.13553237915039
Origin: 0,0
Selected Colors: #0000d3, #02abea, #1fb714, #dd0907, #f20884, #fbf305
-->
<g id="global-translation-frame" transform="translate(94.636, 65.136) scale(1, -1)">
<g id="opperation-1">
    <title>2D Profile2 (Op: 1/1)</title>
    <path d="M -27.469 -55.7
             L -28.267 -55.7
             L -28.267 -58.5
             L 28.267 -58.5
             L 28.267 -55.7
             L -27.469 -55.7
             M -78.346 -58.5
             L -77.563 -58.5
             L -77.563 -55.7
             L -85.1 -55.7
             A 0.1 0.1 0 0 0 -85.2 -55.6
             L -85.2 -48.75
             L -88 -48.75
             L -88 -58.5
             L -78.346 -58.5
             M -89.115 -59.208
             A 0.9 0.9 0 0 1 -90.321 -59.615
             A 0.9 0.9 0 0 1 -89.913 -60.821
             A 0.9 0.9 0 0 1 -88.708 -60.413
             A 0.9 0.9 0 0 1 -89.115 -59.208
             M -86.808 18.433
             L -87.8 18.433
             L -88 18.433
             L -88 -18.433
             L -85.2 -18.433
             L -85.2 18.433
             L -86.808 18.433
             M -88 49.534
             L -88 48.75
             L -85.2 48.75
             L -85.2 55.6
             A 0.1 0.1 0 0 0 -85.1 55.7
             L -77.563 55.7
             L -77.563 58.5
             L -88 58.5
             L -88 49.534
             M -88.708 59.615
             A 0.9 0.9 0 0 1 -89.115 60.821
             A 0.9 0.9 0 0 1 -90.321 60.413
             A 0.9 0.9 0 0 1 -89.913 59.208
             A 0.9 0.9 0 0 1 -88.708 59.615
             M 28.267 57.303
             L 28.267 58.3
             L 28.267 58.5
             L -28.267 58.5
             L -28.267 55.7
             L 28.267 55.7
             L 28.267 57.303
             M 78.346 58.5
             L 77.563 58.5
             L 77.563 55.7
             L 85.1 55.7
             A 0.1 0.1 0 0 0 85.2 55.6
             L 85.2 48.75
             L 88 48.75
             L 88 58.5
             L 78.346 58.5
             M 89.115 59.208
             A 0.9 0.9 0 0 1 90.321 59.615
             A 0.9 0.9 0 0 1 89.913 60.821
             A 0.9 0.9 0 0 1 88.708 60.413
             A 0.9 0.9 0 0 1 89.115 59.208
             M 86.808 -18.433
             L 87.8 -18.433
             L 88 -18.433
             L 88 18.433
             L 85.2 18.433
             L 85.2 -18.433
             L 86.808 -18.433
             M 88 -49.534
             L 88 -48.75
             L 85.2 -48.75
             L 85.2 -55.6
             A 0.1 0.1 0 0 0 85.1 -55.7
             L 77.563 -55.7
             L 77.563 -58.5
             L 88 -58.5
             L 88 -49.534
             M 89.379 -59.124
             A 0.9 0.9 0 0 1 88.624 -60.15
             A 0.9 0.9 0 0 1 89.65 -60.904
             A 0.9 0.9 0 0 1 90.404 -59.879
             A 0.9 0.9 0 0 1 89.379 -59.124
             M 91.735 -59.124
             L 91.735 -60.136
             A 2.1 2.1 0 0 0 89.635 -62.236
             L -89.635 -62.236
             A 2.1 2.1 0 0 0 -91.735 -60.136
             L -91.735 60.136
             A 2.1 2.1 0 0 0 -89.635 62.236
             L 89.635 62.236
             A 2.1 2.1 0 0 0 91.735 60.136
             L 91.735 -59.124" fill="none" stroke="#0000d3" stroke-width="0.1"/>
</g>
</g>
</svg>
