<?xml version="1.0" encoding="UTF-8" standalone="no"?>
<svg xmlns="http://www.w3.org/2000/svg" width="32.18000030517578mm" height="176.1999969482422mm" viewBox="0 0 32.18000030517578 176.1999969482422">
<desc>Created with Glowforge for Fusion 360. To download visit: https://cam.autodesk.com/hsmposts?p=glowforge</desc>
<!-- CAM Setup Info:
Work Area Width: 32.18000030517578mm
Work Area Height: 176.1999969482422mm
Work Area Too Small?: false
Stock box Upper Right: 14.09000015258789,86.0999984741211
Stock box Lower Left: -14.09000015258789,-86.0999984741211
Origin: 0,0
Selected Colors: #0000d3, #02abea, #1fb714, #dd0907, #f20884, #fbf305
-->
<g id="global-translation-frame" transform="translate(16.09, 88.1) scale(1, -1)">
<g id="opperation-1">
    <title>2D Profile8 (Op: 1/1)</title>
    <path d="M 1.19 -76.929
             A 2.9 2.9 0 0 1 -1.71 -79.829
             A 2.9 2.9 0 0 1 1.19 -82.729
             A 2.9 2.9 0 0 1 4.09 -79.829
             A 2.9 2.9 0 0 1 1.19 -76.929
             M 0.106 -60.947
             L -1.71 -60.947
             L -1.71 -69.447
             L 2.09 -69.447
             L 2.09 -60.947
             L 1.09 -60.947
             L 0.106 -60.947
             M -1.71 -45.501
             L -1.71 -46.301
             L 3.508 -46.301
             A 1.9 1.9 0 0 1 5.408 -44.401
             L 5.408 -36.401
             A 1.9 1.9 0 0 1 3.508 -34.501
             L -1.71 -34.501
             L -1.71 -45.501
             M -7.202 -21.175
             L -6.21 -21.175
             L -6.01 -21.175
             L -6.01 21.175
             L -8.81 21.175
             L -8.81 -21.175
             L -7.202 -21.175
             M -13.19 -21.175
             L -13.19 28.367
             A 0.1 0.1 0 0 0 -13.09 28.467
             L -10.19 28.467
             L -10.19 85.1
             A 0.1 0.1 0 0 0 -10.09 85.2
             L 13.09 85.2
             A 0.1 0.1 0 0 0 13.19 85.1
             L 13.19 77.463
             A 0.1 0.1 0 0 0 13.09 77.363
             L 10.19 77.363
             L 10.19 28.467
             L 13.09 28.467
             A 0.1 0.1 0 0 0 13.19 28.367
             L 13.19 -28.367
             A 0.1 0.1 0 0 0 13.09 -28.467
             L 10.19 -28.467
             L 10.19 -77.363
             L 13.09 -77.363
             A 0.1 0.1 0 0 0 13.19 -77.463
             L 13.19 -85.1
             A 0.1 0.1 0 0 0 13.09 -85.2
             L -10.09 -85.2
             A 0.1 0.1 0 0 0 -10.19 -85.1
             L -10.19 -28.467
             L -13.09 -28.467
             A 0.1 0.1 0 0 0 -13.19 -28.367
             L -13.19 -21.175" fill="none" stroke="#0000d3" stroke-width="0.1"/>
</g>
</g>
</svg>
