<?xml version="1.0" encoding="UTF-8" standalone="no"?>
<svg xmlns="http://www.w3.org/2000/svg" width="182.1999969482422mm" height="123.19999694824219mm" viewBox="0 0 182.1999969482422 123.19999694824219">
<desc>Created with Glowforge for Fusion 360. To download visit: https://cam.autodesk.com/hsmposts?p=glowforge</desc>
<!-- CAM Setup Info:
Work Area Width: 182.1999969482422mm
Work Area Height: 123.19999694824219mm
Work Area Too Small?: false
Stock box Upper Right: 89.0999984741211,59.599998474121094
Stock box Lower Left: -89.0999984741211,-59.599998474121094
Origin: 0,0
Selected Colors: #0000d3, #02abea, #1fb714, #dd0907, #f20884, #fbf305
-->
<g id="global-translation-frame" transform="translate(91.1, 61.6) scale(1, -1)">
<g id="opperation-1">
    <title>2D Profile3 (Op: 1/1)</title>
    <path d="M 78.529 -46.7
             A 1.3 1.3 0 0 1 79.829 -48
             A 1.3 1.3 0 0 1 81.129 -46.7
             A 1.3 1.3 0 0 1 79.829 -45.4
             A 1.3 1.3 0 0 1 78.529 -46.7
             M 49.311 -51.596
             A 0.8 0.8 0 0 1 48.511 -52.396
             A 0.8 0.8 0 0 1 49.311 -53.196
             A 0.8 0.8 0 0 1 50.111 -52.396
             A 0.8 0.8 0 0 1 49.311 -51.596
             M 30.732 -52.143
             A 0.8 0.8 0 0 1 31.238 -53.155
             A 0.8 0.8 0 0 1 32.25 -52.648
             A 0.8 0.8 0 0 1 31.743 -51.637
             A 0.8 0.8 0 0 1 30.732 -52.143
             M 14.9 -53.888
             L 14.9 -52.9
             L 14.9 -52.7
             L -14.9 -52.7
             L -14.9 -56.5
             L 14.9 -56.5
             L 14.9 -53.888
             M 13.445 -36.334
             A 1.3 1.3 0 0 1 11.607 -36.304
             A 1.3 1.3 0 0 1 11.577 -38.142
             A 1.3 1.3 0 0 1 13.415 -38.172
             A 1.3 1.3 0 0 1 13.445 -36.334
             M 11.577 -27.642
             A 1.3 1.3 0 0 1 13.415 -27.672
             A 1.3 1.3 0 0 1 13.445 -25.834
             A 1.3 1.3 0 0 1 11.607 -25.804
             A 1.3 1.3 0 0 1 11.577 -27.642
             M -11.335 -27.672
             A 1.3 1.3 0 0 1 -11.305 -25.834
             A 1.3 1.3 0 0 1 -13.143 -25.804
             A 1.3 1.3 0 0 1 -13.173 -27.642
             A 1.3 1.3 0 0 1 -11.335 -27.672
             M -12.197 -35.939
             A 1.3 1.3 0 0 1 -13.539 -37.196
             A 1.3 1.3 0 0 1 -12.281 -38.537
             A 1.3 1.3 0 0 1 -10.94 -37.28
             A 1.3 1.3 0 0 1 -12.197 -35.939
             M 7.975 13.935
             A 1.3 1.3 0 0 1 9.232 12.593
             A 1.3 1.3 0 0 1 10.573 13.851
             A 1.3 1.3 0 0 1 9.316 15.192
             A 1.3 1.3 0 0 1 7.975 13.935
             M 10.178 35.959
             A 1.3 1.3 0 0 1 10.208 37.797
             A 1.3 1.3 0 0 1 8.37 37.827
             A 1.3 1.3 0 0 1 8.34 35.988
             A 1.3 1.3 0 0 1 10.178 35.959
             M 66.34 35.988
             A 1.3 1.3 0 0 1 68.178 35.959
             A 1.3 1.3 0 0 1 68.208 37.797
             A 1.3 1.3 0 0 1 66.37 37.827
             A 1.3 1.3 0 0 1 66.34 35.988
             M 67.219 15.192
             A 1.3 1.3 0 0 1 65.975 13.838
             A 1.3 1.3 0 0 1 67.329 12.594
             A 1.3 1.3 0 0 1 68.573 13.948
             A 1.3 1.3 0 0 1 67.219 15.192
             M 85.2 15.192
             L 85.2 14
             L 88.1 14
             A 0.1 0.1 0 0 0 88.2 13.9
             L 88.2 -13.9
             A 0.1 0.1 0 0 0 88.1 -14
             L 85.2 -14
             L 85.2 -55.6
             A 0.1 0.1 0 0 0 85.1 -55.7
             L 21.375 -55.7
             L 21.375 -58.6
             A 0.1 0.1 0 0 0 21.275 -58.7
             L -21.275 -58.7
             A 0.1 0.1 0 0 0 -21.375 -58.6
             L -21.375 -55.7
             L -85.1 -55.7
             A 0.1 0.1 0 0 0 -85.2 -55.6
             L -85.2 -14
             L -88.1 -14
             A 0.1 0.1 0 0 0 -88.2 -13.9
             L -88.2 13.9
             A 0.1 0.1 0 0 0 -88.1 14
             L -85.2 14
             L -85.2 55.6
             A 0.1 0.1 0 0 0 -85.1 55.7
             L -21.375 55.7
             L -21.375 58.6
             A 0.1 0.1 0 0 0 -21.275 58.7
             L 21.275 58.7
             A 0.1 0.1 0 0 0 21.375 58.6
             L 21.375 55.7
             L 85.1 55.7
             A 0.1 0.1 0 0 0 85.2 55.6
             L 85.2 15.192" fill="none" stroke="#0000d3" stroke-width="0.1"/>
</g>
</g>
</svg>
